<mxfile host="app.diagrams.net" modified="2021-01-13T03:12:49.242Z" agent="5.0 (Windows)" etag="WnQkkBiFqkCGX7mlFNaC" version="14.1.9" type="github" pages="3">
  <diagram name="历史数据调阅" id="13e1069c-82ec-6db2-03f1-153e76fe0fe0">
    <mxGraphModel dx="1662" dy="763" grid="0" gridSize="10" guides="1" tooltips="1" connect="1" arrows="1" fold="1" page="1" pageScale="1" pageWidth="1100" pageHeight="850" background="#ffffff" math="0" shadow="0">
      <root>
        <mxCell id="0" />
        <mxCell id="1" parent="0" />
        <mxCell id="7baba1c4bc27f4b0-2" value="远程服务" style="shape=umlLifeline;perimeter=lifelinePerimeter;whiteSpace=wrap;html=1;container=1;collapsible=0;recursiveResize=0;outlineConnect=0;rounded=1;shadow=0;comic=0;labelBackgroundColor=#ffffff;strokeWidth=1;fontFamily=Verdana;fontSize=12;align=center;fillColor=#d5e8d4;strokeColor=#82b366;" parent="1" vertex="1">
          <mxGeometry x="680" y="60" width="100" height="760" as="geometry" />
        </mxCell>
        <mxCell id="7baba1c4bc27f4b0-10" value="" style="html=1;points=[];perimeter=orthogonalPerimeter;rounded=0;shadow=0;comic=0;labelBackgroundColor=none;strokeWidth=1;fontFamily=Helvetica;fontSize=12;align=center;" parent="7baba1c4bc27f4b0-2" vertex="1">
          <mxGeometry x="45" y="80" width="10" height="650" as="geometry" />
        </mxCell>
        <mxCell id="7baba1c4bc27f4b0-3" value="FORE2" style="shape=umlLifeline;perimeter=lifelinePerimeter;whiteSpace=wrap;html=1;container=1;collapsible=0;recursiveResize=0;outlineConnect=0;rounded=1;shadow=0;comic=0;labelBackgroundColor=none;strokeWidth=1;fontFamily=Verdana;fontSize=12;align=center;fillColor=#ffe6cc;strokeColor=#d79b00;" parent="1" vertex="1">
          <mxGeometry x="960" y="60" width="100" height="760" as="geometry" />
        </mxCell>
        <mxCell id="7baba1c4bc27f4b0-13" value="" style="html=1;points=[];perimeter=orthogonalPerimeter;rounded=0;shadow=0;comic=0;labelBackgroundColor=none;strokeWidth=1;fontFamily=Helvetica;fontSize=12;align=center;" parent="7baba1c4bc27f4b0-3" vertex="1">
          <mxGeometry x="45" y="160" width="10" height="480" as="geometry" />
        </mxCell>
        <mxCell id="7baba1c4bc27f4b0-4" value="服务网关机" style="shape=umlLifeline;perimeter=lifelinePerimeter;whiteSpace=wrap;html=1;container=1;collapsible=0;recursiveResize=0;outlineConnect=0;rounded=1;shadow=0;comic=0;labelBackgroundColor=none;strokeWidth=1;fontFamily=Verdana;fontSize=12;align=center;fillColor=#ffe6cc;strokeColor=#d79b00;" parent="1" vertex="1">
          <mxGeometry x="1100" y="60" width="100" height="760" as="geometry" />
        </mxCell>
        <mxCell id="7baba1c4bc27f4b0-5" value="远程操作服务" style="shape=umlLifeline;perimeter=lifelinePerimeter;whiteSpace=wrap;html=1;container=1;collapsible=0;recursiveResize=0;outlineConnect=0;rounded=1;shadow=0;comic=0;labelBackgroundColor=none;strokeWidth=1;fontFamily=Verdana;fontSize=12;align=center;fillColor=#d5e8d4;strokeColor=#82b366;" parent="1" vertex="1">
          <mxGeometry x="1260" y="60" width="100" height="760" as="geometry" />
        </mxCell>
        <mxCell id="OZsl4u9eeaH9CvWHgr1x-8" value="" style="html=1;points=[];perimeter=orthogonalPerimeter;rounded=0;shadow=0;comic=0;labelBackgroundColor=none;strokeWidth=1;fontFamily=Helvetica;fontSize=12;align=center;" parent="7baba1c4bc27f4b0-5" vertex="1">
          <mxGeometry x="45" y="210" width="10" height="150" as="geometry" />
        </mxCell>
        <mxCell id="7baba1c4bc27f4b0-6" value="文件服务" style="shape=umlLifeline;perimeter=lifelinePerimeter;whiteSpace=wrap;html=1;container=1;collapsible=0;recursiveResize=0;outlineConnect=0;rounded=1;shadow=0;comic=0;labelBackgroundColor=none;strokeWidth=1;fontFamily=Verdana;fontSize=12;align=center;fillColor=#ffe6cc;strokeColor=#d79b00;" parent="1" vertex="1">
          <mxGeometry x="1425" y="60" width="100" height="760" as="geometry" />
        </mxCell>
        <mxCell id="UsObMnspeFixytgGgT5c-1" value="" style="html=1;points=[];perimeter=orthogonalPerimeter;rounded=0;shadow=0;comic=0;labelBackgroundColor=none;strokeWidth=1;fontFamily=Helvetica;fontSize=12;align=center;" parent="7baba1c4bc27f4b0-6" vertex="1">
          <mxGeometry x="45" y="297" width="10" height="183" as="geometry" />
        </mxCell>
        <mxCell id="7baba1c4bc27f4b0-8" value="人机界面" style="shape=umlLifeline;perimeter=lifelinePerimeter;whiteSpace=wrap;html=1;container=1;collapsible=0;recursiveResize=0;outlineConnect=0;rounded=1;shadow=0;comic=0;labelBackgroundColor=none;strokeWidth=1;fontFamily=Verdana;fontSize=12;align=center;fillColor=#ffe6cc;strokeColor=#d79b00;" parent="1" vertex="1">
          <mxGeometry x="540" y="60" width="100" height="760" as="geometry" />
        </mxCell>
        <mxCell id="7baba1c4bc27f4b0-9" value="" style="html=1;points=[];perimeter=orthogonalPerimeter;rounded=0;shadow=0;comic=0;labelBackgroundColor=none;strokeWidth=1;fontFamily=Helvetica;fontSize=12;align=center;" parent="7baba1c4bc27f4b0-8" vertex="1">
          <mxGeometry x="45" y="80" width="10" height="650" as="geometry" />
        </mxCell>
        <mxCell id="7baba1c4bc27f4b0-16" value="" style="html=1;points=[];perimeter=orthogonalPerimeter;rounded=0;shadow=0;comic=0;labelBackgroundColor=none;strokeWidth=1;fontFamily=Helvetica;fontSize=12;align=center;" parent="1" vertex="1">
          <mxGeometry x="1145" y="260" width="10" height="310" as="geometry" />
        </mxCell>
        <mxCell id="7baba1c4bc27f4b0-17" value="61850：请求历史数据" style="html=1;verticalAlign=bottom;endArrow=block;labelBackgroundColor=none;fontFamily=Helvetica;fontSize=12;edgeStyle=elbowEdgeStyle;elbow=vertical;" parent="1" edge="1">
          <mxGeometry relative="1" as="geometry">
            <mxPoint x="1015" y="269" as="sourcePoint" />
            <Array as="points">
              <mxPoint x="1020" y="269" />
            </Array>
            <mxPoint x="1145" y="269" as="targetPoint" />
          </mxGeometry>
        </mxCell>
        <mxCell id="7baba1c4bc27f4b0-11" value="rest：请求历史数据" style="html=1;verticalAlign=bottom;endArrow=block;entryX=0;entryY=0;labelBackgroundColor=none;fontFamily=Helvetica;fontSize=12;edgeStyle=elbowEdgeStyle;elbow=vertical;" parent="1" edge="1">
          <mxGeometry relative="1" as="geometry">
            <mxPoint x="598" y="165" as="sourcePoint" />
            <mxPoint x="723.0000000000002" y="165.00000000000114" as="targetPoint" />
          </mxGeometry>
        </mxCell>
        <mxCell id="7baba1c4bc27f4b0-40" value="&lt;div style=&quot;text-align: justify&quot;&gt;&lt;span&gt;&lt;font style=&quot;font-size: 18px&quot;&gt;调控/调度/集控&lt;/font&gt;&lt;/span&gt;&lt;/div&gt;" style="shape=note;whiteSpace=wrap;html=1;size=14;verticalAlign=top;align=center;spacingTop=-6;rounded=0;shadow=0;comic=0;labelBackgroundColor=none;strokeWidth=1;fontFamily=Verdana;fontSize=12;fillColor=#f5f5f5;strokeColor=#666666;fontColor=#333333;" parent="1" vertex="1">
          <mxGeometry x="540" y="20" width="520" height="25" as="geometry" />
        </mxCell>
        <mxCell id="7baba1c4bc27f4b0-43" value="&lt;font style=&quot;font-size: 18px&quot;&gt;变电站&lt;/font&gt;" style="shape=note;whiteSpace=wrap;html=1;size=14;verticalAlign=top;align=center;spacingTop=-6;rounded=0;shadow=0;comic=0;labelBackgroundColor=none;strokeWidth=1;fontFamily=Verdana;fontSize=12;fillColor=#f5f5f5;strokeColor=#666666;fontColor=#333333;" parent="1" vertex="1">
          <mxGeometry x="1100" y="20" width="610" height="25" as="geometry" />
        </mxCell>
        <mxCell id="UsObMnspeFixytgGgT5c-17" value="mqtt：请求历史数据" style="html=1;verticalAlign=bottom;endArrow=block;fontFamily=Helvetica;fontSize=12;" parent="1" edge="1">
          <mxGeometry width="80" relative="1" as="geometry">
            <mxPoint x="1155" y="290" as="sourcePoint" />
            <mxPoint x="1305" y="290.0000000000001" as="targetPoint" />
          </mxGeometry>
        </mxCell>
        <mxCell id="UsObMnspeFixytgGgT5c-20" value="rest：返回历史数据" style="html=1;verticalAlign=bottom;endArrow=open;dashed=1;endSize=8;fontFamily=Helvetica;exitX=-0.333;exitY=0.881;exitDx=0;exitDy=0;exitPerimeter=0;fontSize=12;" parent="1" edge="1">
          <mxGeometry relative="1" as="geometry">
            <mxPoint x="1466.67" y="504.22299999999996" as="sourcePoint" />
            <mxPoint x="1155" y="504.22299999999996" as="targetPoint" />
          </mxGeometry>
        </mxCell>
        <mxCell id="UsObMnspeFixytgGgT5c-24" value="文件服务" style="shape=umlLifeline;perimeter=lifelinePerimeter;whiteSpace=wrap;html=1;container=1;collapsible=0;recursiveResize=0;outlineConnect=0;rounded=1;shadow=0;comic=0;labelBackgroundColor=none;strokeWidth=1;fontFamily=Verdana;fontSize=12;align=center;fillColor=#ffe6cc;strokeColor=#d79b00;" parent="1" vertex="1">
          <mxGeometry x="820" y="60" width="100" height="760" as="geometry" />
        </mxCell>
        <mxCell id="UsObMnspeFixytgGgT5c-25" value="" style="html=1;points=[];perimeter=orthogonalPerimeter;rounded=0;shadow=0;comic=0;labelBackgroundColor=none;strokeWidth=1;fontFamily=Helvetica;fontSize=12;align=center;" parent="UsObMnspeFixytgGgT5c-24" vertex="1">
          <mxGeometry x="46" y="80" width="10" height="600" as="geometry" />
        </mxCell>
        <mxCell id="UsObMnspeFixytgGgT5c-32" value="rest：存储历史数据" style="html=1;verticalAlign=bottom;endArrow=block;fontFamily=Helvetica;entryX=0.9;entryY=0.287;entryDx=0;entryDy=0;entryPerimeter=0;fontSize=12;" parent="UsObMnspeFixytgGgT5c-24" edge="1">
          <mxGeometry width="80" relative="1" as="geometry">
            <mxPoint x="186" y="535" as="sourcePoint" />
            <mxPoint x="54.99999999999977" y="536.4800000000002" as="targetPoint" />
            <Array as="points">
              <mxPoint x="151" y="535" />
            </Array>
          </mxGeometry>
        </mxCell>
        <mxCell id="UsObMnspeFixytgGgT5c-33" value="rest：存储历史数据结果" style="html=1;verticalAlign=bottom;endArrow=open;dashed=1;endSize=8;fontFamily=Helvetica;entryX=-0.1;entryY=0.2;entryDx=0;entryDy=0;entryPerimeter=0;fontSize=12;" parent="UsObMnspeFixytgGgT5c-24" edge="1">
          <mxGeometry relative="1" as="geometry">
            <mxPoint x="56" y="565" as="sourcePoint" />
            <mxPoint x="185" y="565" as="targetPoint" />
          </mxGeometry>
        </mxCell>
        <mxCell id="UsObMnspeFixytgGgT5c-34" value="rest：响应历史数据" style="html=1;verticalAlign=bottom;endArrow=open;dashed=1;endSize=8;fontFamily=Helvetica;entryX=-0.1;entryY=0.2;entryDx=0;entryDy=0;entryPerimeter=0;fontSize=12;" parent="1" edge="1">
          <mxGeometry relative="1" as="geometry">
            <mxPoint x="865" y="215" as="sourcePoint" />
            <mxPoint x="736" y="215" as="targetPoint" />
          </mxGeometry>
        </mxCell>
        <mxCell id="UsObMnspeFixytgGgT5c-35" value="mqtt：返回请求历史数据结果" style="html=1;verticalAlign=bottom;endArrow=open;dashed=1;endSize=8;fontFamily=Helvetica;exitX=-0.1;exitY=1;exitDx=0;exitDy=0;exitPerimeter=0;entryX=1;entryY=0.81;entryDx=0;entryDy=0;entryPerimeter=0;fontSize=12;" parent="1" edge="1">
          <mxGeometry relative="1" as="geometry">
            <mxPoint x="1004" y="660" as="sourcePoint" />
            <mxPoint x="735" y="660.2" as="targetPoint" />
          </mxGeometry>
        </mxCell>
        <mxCell id="UsObMnspeFixytgGgT5c-39" value="rest：响应历史数据" style="html=1;verticalAlign=bottom;endArrow=open;dashed=1;endSize=8;fontFamily=Helvetica;entryX=1.1;entryY=0.98;entryDx=0;entryDy=0;entryPerimeter=0;fontSize=12;" parent="1" source="7baba1c4bc27f4b0-10" target="7baba1c4bc27f4b0-9" edge="1">
          <mxGeometry relative="1" as="geometry">
            <mxPoint x="700" y="210" as="sourcePoint" />
            <mxPoint x="620" y="210" as="targetPoint" />
          </mxGeometry>
        </mxCell>
        <mxCell id="UsObMnspeFixytgGgT5c-26" value="rest：请求历史数据" style="html=1;verticalAlign=bottom;endArrow=block;fontFamily=Helvetica;exitX=1.3;exitY=0.25;exitDx=0;exitDy=0;exitPerimeter=0;fontSize=12;" parent="1" edge="1">
          <mxGeometry x="-0.0394" width="80" relative="1" as="geometry">
            <mxPoint x="739" y="175" as="sourcePoint" />
            <mxPoint x="866" y="175" as="targetPoint" />
            <mxPoint as="offset" />
          </mxGeometry>
        </mxCell>
        <mxCell id="OZsl4u9eeaH9CvWHgr1x-1" value="数据查询服务" style="shape=umlLifeline;perimeter=lifelinePerimeter;whiteSpace=wrap;html=1;container=1;collapsible=0;recursiveResize=0;outlineConnect=0;rounded=1;shadow=0;comic=0;labelBackgroundColor=none;strokeWidth=1;fontFamily=Verdana;fontSize=12;align=center;fillColor=#ffe6cc;strokeColor=#d79b00;" parent="1" vertex="1">
          <mxGeometry x="1610" y="60" width="100" height="760" as="geometry" />
        </mxCell>
        <mxCell id="OZsl4u9eeaH9CvWHgr1x-2" value="" style="html=1;points=[];perimeter=orthogonalPerimeter;rounded=0;shadow=0;comic=0;labelBackgroundColor=none;strokeWidth=1;fontFamily=Helvetica;fontSize=12;align=center;" parent="OZsl4u9eeaH9CvWHgr1x-1" vertex="1">
          <mxGeometry x="45" y="220" width="10" height="100" as="geometry" />
        </mxCell>
        <mxCell id="OZsl4u9eeaH9CvWHgr1x-7" value="rest：请求历史数据" style="html=1;verticalAlign=bottom;endArrow=block;fontFamily=Helvetica;fontSize=12;" parent="1" edge="1">
          <mxGeometry width="80" relative="1" as="geometry">
            <mxPoint x="1316" y="310" as="sourcePoint" />
            <mxPoint x="1655.5000000000005" y="310" as="targetPoint" />
          </mxGeometry>
        </mxCell>
        <mxCell id="OZsl4u9eeaH9CvWHgr1x-9" value="rest：返回历史数据" style="html=1;verticalAlign=bottom;endArrow=open;dashed=1;endSize=8;fontFamily=Helvetica;entryX=1;entryY=0.262;entryDx=0;entryDy=0;entryPerimeter=0;exitX=0.083;exitY=0.347;exitDx=0;exitDy=0;exitPerimeter=0;fontSize=12;" parent="1" edge="1">
          <mxGeometry x="0.0156" relative="1" as="geometry">
            <mxPoint x="1655.8300000000004" y="343.9900000000001" as="sourcePoint" />
            <mxPoint x="1315" y="345.74" as="targetPoint" />
            <mxPoint as="offset" />
          </mxGeometry>
        </mxCell>
        <mxCell id="OZsl4u9eeaH9CvWHgr1x-11" value="61850：返回历史数据" style="html=1;verticalAlign=bottom;endArrow=open;dashed=1;endSize=8;fontFamily=Helvetica;entryX=1.2;entryY=0.9;entryDx=0;entryDy=0;entryPerimeter=0;fontSize=12;" parent="1" edge="1">
          <mxGeometry x="0.0156" relative="1" as="geometry">
            <mxPoint x="1143" y="538" as="sourcePoint" />
            <mxPoint x="1015.0000000000002" y="538" as="targetPoint" />
            <mxPoint as="offset" />
          </mxGeometry>
        </mxCell>
        <mxCell id="OZsl4u9eeaH9CvWHgr1x-12" value="mqtt：返回历史数据" style="html=1;verticalAlign=bottom;endArrow=open;dashed=1;endSize=8;fontFamily=Helvetica;entryX=1.2;entryY=0.9;entryDx=0;entryDy=0;entryPerimeter=0;fontSize=12;" parent="1" edge="1">
          <mxGeometry x="0.0156" relative="1" as="geometry">
            <mxPoint x="1298" y="408" as="sourcePoint" />
            <mxPoint x="1155.0000000000002" y="408" as="targetPoint" />
            <mxPoint as="offset" />
          </mxGeometry>
        </mxCell>
        <mxCell id="OZsl4u9eeaH9CvWHgr1x-13" value="rest：请求历史数据" style="html=1;verticalAlign=bottom;endArrow=block;fontFamily=Helvetica;entryX=-0.083;entryY=0.512;entryDx=0;entryDy=0;entryPerimeter=0;fontSize=12;" parent="1" edge="1">
          <mxGeometry width="80" relative="1" as="geometry">
            <mxPoint x="1156" y="453" as="sourcePoint" />
            <mxPoint x="1469.17" y="452.6959999999999" as="targetPoint" />
            <mxPoint as="offset" />
          </mxGeometry>
        </mxCell>
        <mxCell id="OZsl4u9eeaH9CvWHgr1x-16" value="mqtt：当历史数据不存在请求" style="html=1;verticalAlign=bottom;endArrow=block;labelBackgroundColor=none;fontFamily=Helvetica;fontSize=12;edgeStyle=elbowEdgeStyle;elbow=vertical;" parent="1" edge="1">
          <mxGeometry x="0.003" relative="1" as="geometry">
            <mxPoint x="737" y="250" as="sourcePoint" />
            <mxPoint x="1006.5000000000005" y="250" as="targetPoint" />
            <Array as="points">
              <mxPoint x="917" y="250" />
              <mxPoint x="757" y="300" />
              <mxPoint x="747" y="300" />
            </Array>
            <mxPoint as="offset" />
          </mxGeometry>
        </mxCell>
        <mxCell id="OZsl4u9eeaH9CvWHgr1x-19" value="rest：请求历史数据" style="html=1;verticalAlign=bottom;endArrow=block;fontFamily=Helvetica;exitX=1.3;exitY=0.25;exitDx=0;exitDy=0;exitPerimeter=0;fontSize=12;" parent="1" edge="1">
          <mxGeometry x="-0.0394" width="80" relative="1" as="geometry">
            <mxPoint x="736.5" y="684" as="sourcePoint" />
            <mxPoint x="863.5" y="684" as="targetPoint" />
            <mxPoint as="offset" />
          </mxGeometry>
        </mxCell>
        <mxCell id="OZsl4u9eeaH9CvWHgr1x-20" value="rest：响应历史数据" style="html=1;verticalAlign=bottom;endArrow=open;dashed=1;endSize=8;fontFamily=Helvetica;entryX=-0.1;entryY=0.2;entryDx=0;entryDy=0;entryPerimeter=0;fontSize=12;" parent="1" edge="1">
          <mxGeometry x="0.0078" relative="1" as="geometry">
            <mxPoint x="864.5" y="724.0000000000001" as="sourcePoint" />
            <mxPoint x="735.5" y="724.0000000000001" as="targetPoint" />
            <mxPoint as="offset" />
          </mxGeometry>
        </mxCell>
        <mxCell id="OZsl4u9eeaH9CvWHgr1x-21" value="rest：存储历史数据" style="html=1;verticalAlign=bottom;endArrow=block;fontFamily=Helvetica;fontSize=12;" parent="1" edge="1">
          <mxGeometry width="80" relative="1" as="geometry">
            <mxPoint x="1315" y="384" as="sourcePoint" />
            <mxPoint x="1470" y="384.0000000000001" as="targetPoint" />
          </mxGeometry>
        </mxCell>
      </root>
    </mxGraphModel>
  </diagram>
  <diagram id="lMLiHJ14xjBYSUhT6wy1" name="实时数据调阅">
    <mxGraphModel dx="1662" dy="763" grid="0" gridSize="10" guides="1" tooltips="1" connect="1" arrows="1" fold="1" page="1" pageScale="1" pageWidth="827" pageHeight="1169" math="0" shadow="0">
      <root>
        <mxCell id="qg0TJCGyIy5hIfoVMsbQ-0" />
        <mxCell id="qg0TJCGyIy5hIfoVMsbQ-1" parent="qg0TJCGyIy5hIfoVMsbQ-0" />
        <mxCell id="XKAqjFH1zuQYebgFYhON-0" value="远程服务" style="shape=umlLifeline;perimeter=lifelinePerimeter;whiteSpace=wrap;html=1;container=1;collapsible=0;recursiveResize=0;outlineConnect=0;rounded=1;shadow=0;comic=0;labelBackgroundColor=#ffffff;strokeWidth=1;fontFamily=Verdana;fontSize=12;align=center;fillColor=#d5e8d4;strokeColor=#82b366;" parent="qg0TJCGyIy5hIfoVMsbQ-1" vertex="1">
          <mxGeometry x="510" y="225" width="100" height="760" as="geometry" />
        </mxCell>
        <mxCell id="XKAqjFH1zuQYebgFYhON-1" value="" style="html=1;points=[];perimeter=orthogonalPerimeter;rounded=0;shadow=0;comic=0;labelBackgroundColor=none;strokeWidth=1;fontFamily=Verdana;fontSize=12;align=center;" parent="XKAqjFH1zuQYebgFYhON-0" vertex="1">
          <mxGeometry x="45" y="90" width="10" height="520" as="geometry" />
        </mxCell>
        <mxCell id="XKAqjFH1zuQYebgFYhON-2" value="FORE2" style="shape=umlLifeline;perimeter=lifelinePerimeter;whiteSpace=wrap;html=1;container=1;collapsible=0;recursiveResize=0;outlineConnect=0;rounded=1;shadow=0;comic=0;labelBackgroundColor=none;strokeWidth=1;fontFamily=Verdana;fontSize=12;align=center;fillColor=#ffe6cc;strokeColor=#d79b00;" parent="qg0TJCGyIy5hIfoVMsbQ-1" vertex="1">
          <mxGeometry x="660" y="225" width="100" height="760" as="geometry" />
        </mxCell>
        <mxCell id="XKAqjFH1zuQYebgFYhON-3" value="" style="html=1;points=[];perimeter=orthogonalPerimeter;rounded=0;shadow=0;comic=0;labelBackgroundColor=none;strokeWidth=1;fontFamily=Helvetica;fontSize=12;align=center;" parent="XKAqjFH1zuQYebgFYhON-2" vertex="1">
          <mxGeometry x="45" y="100" width="10" height="450" as="geometry" />
        </mxCell>
        <mxCell id="XKAqjFH1zuQYebgFYhON-4" value="服务网关机" style="shape=umlLifeline;perimeter=lifelinePerimeter;whiteSpace=wrap;html=1;container=1;collapsible=0;recursiveResize=0;outlineConnect=0;rounded=1;shadow=0;comic=0;labelBackgroundColor=none;strokeWidth=1;fontFamily=Verdana;fontSize=12;align=center;fillColor=#ffe6cc;strokeColor=#d79b00;" parent="qg0TJCGyIy5hIfoVMsbQ-1" vertex="1">
          <mxGeometry x="930" y="225" width="100" height="760" as="geometry" />
        </mxCell>
        <mxCell id="XKAqjFH1zuQYebgFYhON-5" value="远程操作服务" style="shape=umlLifeline;perimeter=lifelinePerimeter;whiteSpace=wrap;html=1;container=1;collapsible=0;recursiveResize=0;outlineConnect=0;rounded=1;shadow=0;comic=0;labelBackgroundColor=none;strokeWidth=1;fontFamily=Verdana;fontSize=12;align=center;fillColor=#d5e8d4;strokeColor=#82b366;" parent="qg0TJCGyIy5hIfoVMsbQ-1" vertex="1">
          <mxGeometry x="1080" y="225" width="100" height="760" as="geometry" />
        </mxCell>
        <mxCell id="XKAqjFH1zuQYebgFYhON-6" value="" style="html=1;points=[];perimeter=orthogonalPerimeter;rounded=0;shadow=0;comic=0;labelBackgroundColor=none;strokeWidth=1;fontFamily=Helvetica;fontSize=12;align=center;" parent="XKAqjFH1zuQYebgFYhON-5" vertex="1">
          <mxGeometry x="45" y="195" width="10" height="180" as="geometry" />
        </mxCell>
        <mxCell id="XKAqjFH1zuQYebgFYhON-9" value="人机界面" style="shape=umlLifeline;perimeter=lifelinePerimeter;whiteSpace=wrap;html=1;container=1;collapsible=0;recursiveResize=0;outlineConnect=0;rounded=1;shadow=0;comic=0;labelBackgroundColor=none;strokeWidth=1;fontFamily=Verdana;fontSize=12;align=center;fillColor=#ffe6cc;strokeColor=#d79b00;" parent="qg0TJCGyIy5hIfoVMsbQ-1" vertex="1">
          <mxGeometry x="370" y="225" width="100" height="760" as="geometry" />
        </mxCell>
        <mxCell id="XKAqjFH1zuQYebgFYhON-10" value="" style="html=1;points=[];perimeter=orthogonalPerimeter;rounded=0;shadow=0;comic=0;labelBackgroundColor=none;strokeWidth=1;fontFamily=Verdana;fontSize=12;align=center;" parent="XKAqjFH1zuQYebgFYhON-9" vertex="1">
          <mxGeometry x="45" y="80" width="10" height="560" as="geometry" />
        </mxCell>
        <mxCell id="XKAqjFH1zuQYebgFYhON-11" value="" style="html=1;points=[];perimeter=orthogonalPerimeter;rounded=0;shadow=0;comic=0;labelBackgroundColor=none;strokeWidth=1;fontFamily=Helvetica;fontSize=12;align=center;" parent="qg0TJCGyIy5hIfoVMsbQ-1" vertex="1">
          <mxGeometry x="975" y="395" width="10" height="270" as="geometry" />
        </mxCell>
        <mxCell id="XKAqjFH1zuQYebgFYhON-12" value="61850：请求实时数据" style="html=1;verticalAlign=bottom;endArrow=block;labelBackgroundColor=none;fontFamily=Helvetica;fontSize=12;edgeStyle=elbowEdgeStyle;elbow=vertical;" parent="qg0TJCGyIy5hIfoVMsbQ-1" edge="1">
          <mxGeometry x="0.35" relative="1" as="geometry">
            <mxPoint x="845" y="434" as="sourcePoint" />
            <Array as="points">
              <mxPoint x="710" y="434" />
            </Array>
            <mxPoint x="975" y="434" as="targetPoint" />
            <mxPoint as="offset" />
          </mxGeometry>
        </mxCell>
        <mxCell id="XKAqjFH1zuQYebgFYhON-13" value="rest：请求实时数据" style="html=1;verticalAlign=bottom;endArrow=block;entryX=0;entryY=0;labelBackgroundColor=none;fontFamily=Helvetica;fontSize=12;edgeStyle=elbowEdgeStyle;elbow=vertical;" parent="qg0TJCGyIy5hIfoVMsbQ-1" edge="1">
          <mxGeometry relative="1" as="geometry">
            <mxPoint x="428" y="356" as="sourcePoint" />
            <mxPoint x="553.0000000000002" y="356.00000000000114" as="targetPoint" />
          </mxGeometry>
        </mxCell>
        <mxCell id="XKAqjFH1zuQYebgFYhON-14" value="&lt;div style=&quot;text-align: justify&quot;&gt;&lt;span&gt;&lt;font style=&quot;font-size: 18px&quot;&gt;调控/调度/集控&lt;/font&gt;&lt;/span&gt;&lt;/div&gt;" style="shape=note;whiteSpace=wrap;html=1;size=14;verticalAlign=top;align=center;spacingTop=-6;rounded=0;shadow=0;comic=0;labelBackgroundColor=none;strokeWidth=1;fontFamily=Verdana;fontSize=12;fillColor=#f5f5f5;strokeColor=#666666;fontColor=#333333;" parent="qg0TJCGyIy5hIfoVMsbQ-1" vertex="1">
          <mxGeometry x="370" y="185" width="390" height="25" as="geometry" />
        </mxCell>
        <mxCell id="XKAqjFH1zuQYebgFYhON-15" value="&lt;font style=&quot;font-size: 18px&quot;&gt;变电站&lt;/font&gt;" style="shape=note;whiteSpace=wrap;html=1;size=14;verticalAlign=top;align=center;spacingTop=-6;rounded=0;shadow=0;comic=0;labelBackgroundColor=none;strokeWidth=1;fontFamily=Verdana;fontSize=12;fillColor=#f5f5f5;strokeColor=#666666;fontColor=#333333;" parent="qg0TJCGyIy5hIfoVMsbQ-1" vertex="1">
          <mxGeometry x="930" y="185" width="400" height="25" as="geometry" />
        </mxCell>
        <mxCell id="XKAqjFH1zuQYebgFYhON-16" value="mqtt：请求实时数据" style="html=1;verticalAlign=bottom;endArrow=block;fontFamily=Helvetica;fontSize=12;" parent="qg0TJCGyIy5hIfoVMsbQ-1" edge="1">
          <mxGeometry width="80" relative="1" as="geometry">
            <mxPoint x="985" y="455" as="sourcePoint" />
            <mxPoint x="1120" y="455" as="targetPoint" />
          </mxGeometry>
        </mxCell>
        <mxCell id="XKAqjFH1zuQYebgFYhON-23" value="mqtt：返回实时数据" style="html=1;verticalAlign=bottom;endArrow=open;dashed=1;endSize=8;fontFamily=Helvetica;entryX=1;entryY=0.81;entryDx=0;entryDy=0;entryPerimeter=0;fontSize=12;" parent="qg0TJCGyIy5hIfoVMsbQ-1" edge="1">
          <mxGeometry relative="1" as="geometry">
            <mxPoint x="700" y="627" as="sourcePoint" />
            <mxPoint x="565" y="627.2" as="targetPoint" />
          </mxGeometry>
        </mxCell>
        <mxCell id="XKAqjFH1zuQYebgFYhON-24" value="rest：响应实时数据" style="html=1;verticalAlign=bottom;endArrow=open;dashed=1;endSize=8;fontFamily=Helvetica;fontSize=12;" parent="qg0TJCGyIy5hIfoVMsbQ-1" edge="1">
          <mxGeometry relative="1" as="geometry">
            <mxPoint x="555" y="653" as="sourcePoint" />
            <mxPoint x="430" y="653" as="targetPoint" />
          </mxGeometry>
        </mxCell>
        <mxCell id="XKAqjFH1zuQYebgFYhON-26" value="数据查询服务" style="shape=umlLifeline;perimeter=lifelinePerimeter;whiteSpace=wrap;html=1;container=1;collapsible=0;recursiveResize=0;outlineConnect=0;rounded=1;shadow=0;comic=0;labelBackgroundColor=none;strokeWidth=1;fontFamily=Verdana;fontSize=12;align=center;fillColor=#ffe6cc;strokeColor=#d79b00;" parent="qg0TJCGyIy5hIfoVMsbQ-1" vertex="1">
          <mxGeometry x="1230" y="225" width="100" height="760" as="geometry" />
        </mxCell>
        <mxCell id="XKAqjFH1zuQYebgFYhON-27" value="" style="html=1;points=[];perimeter=orthogonalPerimeter;rounded=0;shadow=0;comic=0;labelBackgroundColor=none;strokeWidth=1;fontFamily=Helvetica;fontSize=12;align=center;" parent="XKAqjFH1zuQYebgFYhON-26" vertex="1">
          <mxGeometry x="45" y="230" width="10" height="110" as="geometry" />
        </mxCell>
        <mxCell id="XKAqjFH1zuQYebgFYhON-28" value="rest：请求实时数据" style="html=1;verticalAlign=bottom;endArrow=block;fontFamily=Helvetica;fontSize=12;" parent="qg0TJCGyIy5hIfoVMsbQ-1" edge="1">
          <mxGeometry width="80" relative="1" as="geometry">
            <mxPoint x="1140" y="475" as="sourcePoint" />
            <mxPoint x="1270" y="475" as="targetPoint" />
          </mxGeometry>
        </mxCell>
        <mxCell id="XKAqjFH1zuQYebgFYhON-29" value="rest：返回实时数据" style="html=1;verticalAlign=bottom;endArrow=open;dashed=1;endSize=8;fontFamily=Helvetica;entryX=1;entryY=0.262;entryDx=0;entryDy=0;entryPerimeter=0;fontSize=12;" parent="qg0TJCGyIy5hIfoVMsbQ-1" edge="1">
          <mxGeometry x="0.0156" relative="1" as="geometry">
            <mxPoint x="1270" y="547" as="sourcePoint" />
            <mxPoint x="1140" y="546.75" as="targetPoint" />
            <mxPoint as="offset" />
          </mxGeometry>
        </mxCell>
        <mxCell id="XKAqjFH1zuQYebgFYhON-30" value="61850：返回实时数据" style="html=1;verticalAlign=bottom;endArrow=open;dashed=1;endSize=8;fontFamily=Helvetica;fontSize=12;" parent="qg0TJCGyIy5hIfoVMsbQ-1" edge="1">
          <mxGeometry x="0.0156" relative="1" as="geometry">
            <mxPoint x="973" y="601" as="sourcePoint" />
            <mxPoint x="720" y="601" as="targetPoint" />
            <mxPoint as="offset" />
          </mxGeometry>
        </mxCell>
        <mxCell id="XKAqjFH1zuQYebgFYhON-31" value="mqtt：返回实时数据" style="html=1;verticalAlign=bottom;endArrow=open;dashed=1;endSize=8;fontFamily=Helvetica;entryX=1.2;entryY=0.9;entryDx=0;entryDy=0;entryPerimeter=0;fontSize=12;" parent="qg0TJCGyIy5hIfoVMsbQ-1" edge="1">
          <mxGeometry x="0.0156" relative="1" as="geometry">
            <mxPoint x="1120" y="573" as="sourcePoint" />
            <mxPoint x="985" y="573" as="targetPoint" />
            <mxPoint as="offset" />
          </mxGeometry>
        </mxCell>
        <mxCell id="XKAqjFH1zuQYebgFYhON-33" value="mqtt：请求实时数据" style="html=1;verticalAlign=bottom;endArrow=block;labelBackgroundColor=none;fontFamily=Helvetica;fontSize=12;edgeStyle=elbowEdgeStyle;elbow=vertical;" parent="qg0TJCGyIy5hIfoVMsbQ-1" edge="1">
          <mxGeometry x="0.003" relative="1" as="geometry">
            <mxPoint x="565" y="405" as="sourcePoint" />
            <mxPoint x="705" y="405" as="targetPoint" />
            <Array as="points">
              <mxPoint x="625" y="405" />
              <mxPoint x="465" y="455" />
              <mxPoint x="455" y="455" />
            </Array>
            <mxPoint as="offset" />
          </mxGeometry>
        </mxCell>
      </root>
    </mxGraphModel>
  </diagram>
  <diagram id="9J9Df5OVKFYTZpi1uOK0" name="文件调阅">
    <mxGraphModel dx="1662" dy="763" grid="0" gridSize="10" guides="1" tooltips="1" connect="1" arrows="1" fold="1" page="1" pageScale="1" pageWidth="827" pageHeight="1169" math="0" shadow="0">
      <root>
        <mxCell id="tbjyTwk7MNVPmW3UWlRG-0" />
        <mxCell id="tbjyTwk7MNVPmW3UWlRG-1" parent="tbjyTwk7MNVPmW3UWlRG-0" />
        <mxCell id="VZKnTXv_0KGTMOll4MMl-0" value="远程服务" style="shape=umlLifeline;perimeter=lifelinePerimeter;whiteSpace=wrap;html=1;container=1;collapsible=0;recursiveResize=0;outlineConnect=0;rounded=1;shadow=0;comic=0;labelBackgroundColor=#ffffff;strokeWidth=1;fontFamily=Verdana;fontSize=12;align=center;fillColor=#d5e8d4;strokeColor=#82b366;" parent="tbjyTwk7MNVPmW3UWlRG-1" vertex="1">
          <mxGeometry x="500" y="225" width="100" height="760" as="geometry" />
        </mxCell>
        <mxCell id="VZKnTXv_0KGTMOll4MMl-1" value="" style="html=1;points=[];perimeter=orthogonalPerimeter;rounded=0;shadow=0;comic=0;labelBackgroundColor=none;strokeWidth=1;fontFamily=Helvetica;fontSize=12;align=center;" parent="VZKnTXv_0KGTMOll4MMl-0" vertex="1">
          <mxGeometry x="45" y="80" width="10" height="650" as="geometry" />
        </mxCell>
        <mxCell id="VZKnTXv_0KGTMOll4MMl-2" value="FORE2" style="shape=umlLifeline;perimeter=lifelinePerimeter;whiteSpace=wrap;html=1;container=1;collapsible=0;recursiveResize=0;outlineConnect=0;rounded=1;shadow=0;comic=0;labelBackgroundColor=none;strokeWidth=1;fontFamily=Verdana;fontSize=12;align=center;fillColor=#ffe6cc;strokeColor=#d79b00;" parent="tbjyTwk7MNVPmW3UWlRG-1" vertex="1">
          <mxGeometry x="780" y="225" width="100" height="760" as="geometry" />
        </mxCell>
        <mxCell id="VZKnTXv_0KGTMOll4MMl-3" value="" style="html=1;points=[];perimeter=orthogonalPerimeter;rounded=0;shadow=0;comic=0;labelBackgroundColor=none;strokeWidth=1;fontFamily=Helvetica;fontSize=12;align=center;" parent="VZKnTXv_0KGTMOll4MMl-2" vertex="1">
          <mxGeometry x="45" y="160" width="10" height="480" as="geometry" />
        </mxCell>
        <mxCell id="VZKnTXv_0KGTMOll4MMl-4" value="服务网关机" style="shape=umlLifeline;perimeter=lifelinePerimeter;whiteSpace=wrap;html=1;container=1;collapsible=0;recursiveResize=0;outlineConnect=0;rounded=1;shadow=0;comic=0;labelBackgroundColor=none;strokeWidth=1;fontFamily=Verdana;fontSize=12;align=center;fillColor=#ffe6cc;strokeColor=#d79b00;" parent="tbjyTwk7MNVPmW3UWlRG-1" vertex="1">
          <mxGeometry x="920" y="225" width="100" height="760" as="geometry" />
        </mxCell>
        <mxCell id="VZKnTXv_0KGTMOll4MMl-5" value="远程操作服务" style="shape=umlLifeline;perimeter=lifelinePerimeter;whiteSpace=wrap;html=1;container=1;collapsible=0;recursiveResize=0;outlineConnect=0;rounded=1;shadow=0;comic=0;labelBackgroundColor=none;strokeWidth=1;fontFamily=Verdana;fontSize=12;align=center;fillColor=#d5e8d4;strokeColor=#82b366;" parent="tbjyTwk7MNVPmW3UWlRG-1" vertex="1">
          <mxGeometry x="1080" y="225" width="100" height="760" as="geometry" />
        </mxCell>
        <mxCell id="VZKnTXv_0KGTMOll4MMl-6" value="" style="html=1;points=[];perimeter=orthogonalPerimeter;rounded=0;shadow=0;comic=0;labelBackgroundColor=none;strokeWidth=1;fontFamily=Helvetica;fontSize=12;align=center;" parent="VZKnTXv_0KGTMOll4MMl-5" vertex="1">
          <mxGeometry x="45" y="210" width="10" height="150" as="geometry" />
        </mxCell>
        <mxCell id="VZKnTXv_0KGTMOll4MMl-7" value="文件服务" style="shape=umlLifeline;perimeter=lifelinePerimeter;whiteSpace=wrap;html=1;container=1;collapsible=0;recursiveResize=0;outlineConnect=0;rounded=1;shadow=0;comic=0;labelBackgroundColor=none;strokeWidth=1;fontFamily=Verdana;fontSize=12;align=center;fillColor=#ffe6cc;strokeColor=#d79b00;" parent="tbjyTwk7MNVPmW3UWlRG-1" vertex="1">
          <mxGeometry x="1245" y="225" width="100" height="760" as="geometry" />
        </mxCell>
        <mxCell id="VZKnTXv_0KGTMOll4MMl-8" value="" style="html=1;points=[];perimeter=orthogonalPerimeter;rounded=0;shadow=0;comic=0;labelBackgroundColor=none;strokeWidth=1;fontFamily=Helvetica;fontSize=12;align=center;" parent="VZKnTXv_0KGTMOll4MMl-7" vertex="1">
          <mxGeometry x="45" y="210" width="10" height="270" as="geometry" />
        </mxCell>
        <mxCell id="VZKnTXv_0KGTMOll4MMl-9" value="人机界面" style="shape=umlLifeline;perimeter=lifelinePerimeter;whiteSpace=wrap;html=1;container=1;collapsible=0;recursiveResize=0;outlineConnect=0;rounded=1;shadow=0;comic=0;labelBackgroundColor=none;strokeWidth=1;fontFamily=Verdana;fontSize=12;align=center;fillColor=#ffe6cc;strokeColor=#d79b00;" parent="tbjyTwk7MNVPmW3UWlRG-1" vertex="1">
          <mxGeometry x="360" y="225" width="100" height="760" as="geometry" />
        </mxCell>
        <mxCell id="VZKnTXv_0KGTMOll4MMl-10" value="" style="html=1;points=[];perimeter=orthogonalPerimeter;rounded=0;shadow=0;comic=0;labelBackgroundColor=none;strokeWidth=1;fontFamily=Helvetica;fontSize=12;align=center;" parent="VZKnTXv_0KGTMOll4MMl-9" vertex="1">
          <mxGeometry x="45" y="80" width="10" height="650" as="geometry" />
        </mxCell>
        <mxCell id="VZKnTXv_0KGTMOll4MMl-11" value="" style="html=1;points=[];perimeter=orthogonalPerimeter;rounded=0;shadow=0;comic=0;labelBackgroundColor=none;strokeWidth=1;fontFamily=Helvetica;fontSize=12;align=center;" parent="tbjyTwk7MNVPmW3UWlRG-1" vertex="1">
          <mxGeometry x="965" y="414" width="10" height="308" as="geometry" />
        </mxCell>
        <mxCell id="VZKnTXv_0KGTMOll4MMl-12" value="61850：请求文件" style="html=1;verticalAlign=bottom;endArrow=block;labelBackgroundColor=none;fontFamily=Helvetica;fontSize=12;edgeStyle=elbowEdgeStyle;elbow=vertical;" parent="tbjyTwk7MNVPmW3UWlRG-1" edge="1">
          <mxGeometry relative="1" as="geometry">
            <mxPoint x="835" y="434" as="sourcePoint" />
            <Array as="points">
              <mxPoint x="840" y="434" />
            </Array>
            <mxPoint x="965" y="434" as="targetPoint" />
          </mxGeometry>
        </mxCell>
        <mxCell id="VZKnTXv_0KGTMOll4MMl-13" value="rest：请求文件" style="html=1;verticalAlign=bottom;endArrow=block;entryX=0;entryY=0;labelBackgroundColor=none;fontFamily=Helvetica;fontSize=12;edgeStyle=elbowEdgeStyle;elbow=vertical;" parent="tbjyTwk7MNVPmW3UWlRG-1" edge="1">
          <mxGeometry relative="1" as="geometry">
            <mxPoint x="418" y="330" as="sourcePoint" />
            <mxPoint x="543" y="330.00000000000114" as="targetPoint" />
          </mxGeometry>
        </mxCell>
        <mxCell id="VZKnTXv_0KGTMOll4MMl-14" value="&lt;div style=&quot;text-align: justify&quot;&gt;&lt;span&gt;&lt;font style=&quot;font-size: 18px&quot;&gt;调控/调度/集控&lt;/font&gt;&lt;/span&gt;&lt;/div&gt;" style="shape=note;whiteSpace=wrap;html=1;size=14;verticalAlign=top;align=center;spacingTop=-6;rounded=0;shadow=0;comic=0;labelBackgroundColor=none;strokeWidth=1;fontFamily=Verdana;fontSize=12;fillColor=#f5f5f5;strokeColor=#666666;fontColor=#333333;" parent="tbjyTwk7MNVPmW3UWlRG-1" vertex="1">
          <mxGeometry x="360" y="185" width="520" height="25" as="geometry" />
        </mxCell>
        <mxCell id="VZKnTXv_0KGTMOll4MMl-15" value="&lt;font style=&quot;font-size: 18px&quot;&gt;变电站&lt;/font&gt;" style="shape=note;whiteSpace=wrap;html=1;size=14;verticalAlign=top;align=center;spacingTop=-6;rounded=0;shadow=0;comic=0;labelBackgroundColor=none;strokeWidth=1;fontFamily=Verdana;fontSize=12;fillColor=#f5f5f5;strokeColor=#666666;fontColor=#333333;" parent="tbjyTwk7MNVPmW3UWlRG-1" vertex="1">
          <mxGeometry x="920" y="185" width="425" height="25" as="geometry" />
        </mxCell>
        <mxCell id="VZKnTXv_0KGTMOll4MMl-16" value="mqtt：请求文件" style="html=1;verticalAlign=bottom;endArrow=block;fontFamily=Helvetica;fontSize=12;" parent="tbjyTwk7MNVPmW3UWlRG-1" edge="1">
          <mxGeometry width="80" relative="1" as="geometry">
            <mxPoint x="975" y="455" as="sourcePoint" />
            <mxPoint x="1125" y="455" as="targetPoint" />
          </mxGeometry>
        </mxCell>
        <mxCell id="VZKnTXv_0KGTMOll4MMl-17" value="rest：返回文件" style="html=1;verticalAlign=bottom;endArrow=open;dashed=1;endSize=8;fontFamily=Helvetica;exitX=-0.333;exitY=0.881;exitDx=0;exitDy=0;exitPerimeter=0;fontSize=12;" parent="tbjyTwk7MNVPmW3UWlRG-1" edge="1">
          <mxGeometry relative="1" as="geometry">
            <mxPoint x="1286.67" y="669.223" as="sourcePoint" />
            <mxPoint x="975" y="669.223" as="targetPoint" />
          </mxGeometry>
        </mxCell>
        <mxCell id="VZKnTXv_0KGTMOll4MMl-18" value="文件服务" style="shape=umlLifeline;perimeter=lifelinePerimeter;whiteSpace=wrap;html=1;container=1;collapsible=0;recursiveResize=0;outlineConnect=0;rounded=1;shadow=0;comic=0;labelBackgroundColor=none;strokeWidth=1;fontFamily=Verdana;fontSize=12;align=center;fillColor=#ffe6cc;strokeColor=#d79b00;" parent="tbjyTwk7MNVPmW3UWlRG-1" vertex="1">
          <mxGeometry x="640" y="225" width="100" height="760" as="geometry" />
        </mxCell>
        <mxCell id="VZKnTXv_0KGTMOll4MMl-19" value="" style="html=1;points=[];perimeter=orthogonalPerimeter;rounded=0;shadow=0;comic=0;labelBackgroundColor=none;strokeWidth=1;fontFamily=Helvetica;fontSize=12;align=center;" parent="VZKnTXv_0KGTMOll4MMl-18" vertex="1">
          <mxGeometry x="46" y="80" width="10" height="600" as="geometry" />
        </mxCell>
        <mxCell id="VZKnTXv_0KGTMOll4MMl-20" value="rest：存储文件" style="html=1;verticalAlign=bottom;endArrow=block;fontFamily=Helvetica;entryX=0.9;entryY=0.287;entryDx=0;entryDy=0;entryPerimeter=0;fontSize=12;" parent="VZKnTXv_0KGTMOll4MMl-18" edge="1">
          <mxGeometry width="80" relative="1" as="geometry">
            <mxPoint x="186" y="535" as="sourcePoint" />
            <mxPoint x="54.99999999999977" y="536.4800000000002" as="targetPoint" />
            <Array as="points">
              <mxPoint x="151" y="535" />
            </Array>
          </mxGeometry>
        </mxCell>
        <mxCell id="VZKnTXv_0KGTMOll4MMl-21" value="rest：返回文件url" style="html=1;verticalAlign=bottom;endArrow=open;dashed=1;endSize=8;fontFamily=Helvetica;entryX=-0.1;entryY=0.2;entryDx=0;entryDy=0;entryPerimeter=0;fontSize=12;" parent="VZKnTXv_0KGTMOll4MMl-18" edge="1">
          <mxGeometry relative="1" as="geometry">
            <mxPoint x="56" y="569" as="sourcePoint" />
            <mxPoint x="185" y="569" as="targetPoint" />
          </mxGeometry>
        </mxCell>
        <mxCell id="VZKnTXv_0KGTMOll4MMl-22" value="rest：响应文件" style="html=1;verticalAlign=bottom;endArrow=open;dashed=1;endSize=8;fontFamily=Helvetica;entryX=-0.1;entryY=0.2;entryDx=0;entryDy=0;entryPerimeter=0;fontSize=12;" parent="tbjyTwk7MNVPmW3UWlRG-1" edge="1">
          <mxGeometry relative="1" as="geometry">
            <mxPoint x="685" y="380" as="sourcePoint" />
            <mxPoint x="556" y="380" as="targetPoint" />
          </mxGeometry>
        </mxCell>
        <mxCell id="VZKnTXv_0KGTMOll4MMl-23" value="mqtt：返回文件url" style="html=1;verticalAlign=bottom;endArrow=open;dashed=1;endSize=8;fontFamily=Helvetica;exitX=-0.1;exitY=1;exitDx=0;exitDy=0;exitPerimeter=0;entryX=1;entryY=0.81;entryDx=0;entryDy=0;entryPerimeter=0;fontSize=12;" parent="tbjyTwk7MNVPmW3UWlRG-1" edge="1">
          <mxGeometry relative="1" as="geometry">
            <mxPoint x="824" y="825" as="sourcePoint" />
            <mxPoint x="555" y="825.2" as="targetPoint" />
          </mxGeometry>
        </mxCell>
        <mxCell id="VZKnTXv_0KGTMOll4MMl-24" value="rest：返回请求文件结果" style="html=1;verticalAlign=bottom;endArrow=open;dashed=1;endSize=8;fontFamily=Helvetica;entryX=1.1;entryY=0.98;entryDx=0;entryDy=0;entryPerimeter=0;fontSize=12;" parent="tbjyTwk7MNVPmW3UWlRG-1" edge="1">
          <mxGeometry relative="1" as="geometry">
            <mxPoint x="545" y="912" as="sourcePoint" />
            <mxPoint x="416" y="912" as="targetPoint" />
          </mxGeometry>
        </mxCell>
        <mxCell id="VZKnTXv_0KGTMOll4MMl-25" value="rest：请求文件" style="html=1;verticalAlign=bottom;endArrow=block;fontFamily=Helvetica;exitX=1.3;exitY=0.25;exitDx=0;exitDy=0;exitPerimeter=0;fontSize=12;" parent="tbjyTwk7MNVPmW3UWlRG-1" edge="1">
          <mxGeometry x="-0.0394" width="80" relative="1" as="geometry">
            <mxPoint x="559" y="340" as="sourcePoint" />
            <mxPoint x="686" y="340" as="targetPoint" />
            <mxPoint as="offset" />
          </mxGeometry>
        </mxCell>
        <mxCell id="VZKnTXv_0KGTMOll4MMl-30" value="61850：返回文件" style="html=1;verticalAlign=bottom;endArrow=open;dashed=1;endSize=8;fontFamily=Helvetica;entryX=1.2;entryY=0.9;entryDx=0;entryDy=0;entryPerimeter=0;fontSize=12;" parent="tbjyTwk7MNVPmW3UWlRG-1" edge="1">
          <mxGeometry x="0.0156" relative="1" as="geometry">
            <mxPoint x="963" y="703" as="sourcePoint" />
            <mxPoint x="835" y="703" as="targetPoint" />
            <mxPoint as="offset" />
          </mxGeometry>
        </mxCell>
        <mxCell id="VZKnTXv_0KGTMOll4MMl-31" value="mqtt：返回文件url" style="html=1;verticalAlign=bottom;endArrow=open;dashed=1;endSize=8;fontFamily=Helvetica;entryX=1.2;entryY=0.9;entryDx=0;entryDy=0;entryPerimeter=0;fontSize=12;" parent="tbjyTwk7MNVPmW3UWlRG-1" edge="1">
          <mxGeometry x="0.0156" relative="1" as="geometry">
            <mxPoint x="1118" y="573" as="sourcePoint" />
            <mxPoint x="975" y="573" as="targetPoint" />
            <mxPoint as="offset" />
          </mxGeometry>
        </mxCell>
        <mxCell id="VZKnTXv_0KGTMOll4MMl-32" value="rest：请求文件" style="html=1;verticalAlign=bottom;endArrow=block;fontFamily=Helvetica;entryX=-0.083;entryY=0.512;entryDx=0;entryDy=0;entryPerimeter=0;fontSize=12;" parent="tbjyTwk7MNVPmW3UWlRG-1" edge="1">
          <mxGeometry width="80" relative="1" as="geometry">
            <mxPoint x="976" y="618" as="sourcePoint" />
            <mxPoint x="1289.17" y="617.6959999999999" as="targetPoint" />
            <mxPoint as="offset" />
          </mxGeometry>
        </mxCell>
        <mxCell id="VZKnTXv_0KGTMOll4MMl-33" value="mqtt：当文件不存在请求" style="html=1;verticalAlign=bottom;endArrow=block;labelBackgroundColor=none;fontFamily=Helvetica;fontSize=12;edgeStyle=elbowEdgeStyle;elbow=vertical;" parent="tbjyTwk7MNVPmW3UWlRG-1" edge="1">
          <mxGeometry x="0.003" relative="1" as="geometry">
            <mxPoint x="557" y="415" as="sourcePoint" />
            <mxPoint x="826.5000000000005" y="415" as="targetPoint" />
            <Array as="points">
              <mxPoint x="737" y="415" />
              <mxPoint x="577" y="465" />
              <mxPoint x="567" y="465" />
            </Array>
            <mxPoint as="offset" />
          </mxGeometry>
        </mxCell>
        <mxCell id="MkB3dQUmZUtMPEXOrnww-0" value="rest：查询文件" style="html=1;verticalAlign=bottom;endArrow=block;fontFamily=Helvetica;fontSize=12;" parent="tbjyTwk7MNVPmW3UWlRG-1" edge="1">
          <mxGeometry width="80" relative="1" as="geometry">
            <mxPoint x="1137" y="474" as="sourcePoint" />
            <mxPoint x="1287" y="474" as="targetPoint" />
          </mxGeometry>
        </mxCell>
        <mxCell id="MkB3dQUmZUtMPEXOrnww-1" value="rest：返回文件url" style="html=1;verticalAlign=bottom;endArrow=open;dashed=1;endSize=8;fontFamily=Helvetica;entryX=1.2;entryY=0.9;entryDx=0;entryDy=0;entryPerimeter=0;fontSize=12;exitX=0;exitY=0.515;exitDx=0;exitDy=0;exitPerimeter=0;" parent="tbjyTwk7MNVPmW3UWlRG-1" edge="1">
          <mxGeometry x="0.0156" relative="1" as="geometry">
            <mxPoint x="1290" y="561.05" as="sourcePoint" />
            <mxPoint x="1135" y="560" as="targetPoint" />
            <mxPoint as="offset" />
          </mxGeometry>
        </mxCell>
      </root>
    </mxGraphModel>
  </diagram>
</mxfile>
